<svg xmlns="http://www.w3.org/2000/svg" viewBox="0 0 390 760" width="390" height="760">
  <defs>
    <style>
      .bg { fill: #0a0a0a; }
      .card { fill: #161616; rx: 14; ry: 14; }
      .card-sm { fill: #161616; rx: 12; ry: 12; }
      .text-primary { fill: #ffffff; font-family: -apple-system, 'Segoe UI', sans-serif; }
      .text-secondary { fill: #888888; font-family: -apple-system, 'Segoe UI', sans-serif; }
      .text-green { fill: #22c55e; font-family: -apple-system, 'Segoe UI', sans-serif; }
      .text-blue { fill: #3b82f6; font-family: -apple-system, 'Segoe UI', sans-serif; }
      .icon-blue { fill: #1e3a5f; rx: 12; ry: 12; }
      .icon-purple { fill: #312e81; rx: 12; ry: 12; }
      .icon-teal { fill: #134e4a; rx: 12; ry: 12; }
      .logo-bg { fill: #3b82f6; rx: 16; ry: 16; }
      .bar-bg { fill: #2a2a2a; rx: 3; ry: 3; }
      .bar-fill { fill: #3b82f6; rx: 3; ry: 3; }
      .badge-green { fill: #14532d; rx: 12; ry: 12; }
      .chevron { stroke: #888888; fill: none; stroke-width: 2; }
    </style>
  </defs>

  <!-- Background -->
  <rect width="390" height="760" class="bg"/>

  <!-- Logo -->
  <rect x="167" y="40" width="56" height="56" class="logo-bg"/>
  <path d="M195 53 l-12 6 12 6 12-6z M183 71 l12 6 12-6 M183 65 l12 6 12-6" stroke="white" fill="none" stroke-width="2"/>

  <!-- Title -->
  <text x="195" y="120" text-anchor="middle" class="text-primary" font-size="22" font-weight="600">PiTravel</text>
  <text x="195" y="140" text-anchor="middle" class="text-secondary" font-size="13">Router de viaje personal</text>

  <!-- Stats row -->
  <rect x="16" y="160" width="114" height="68" class="card-sm"/>
  <rect x="138" y="160" width="114" height="68" class="card-sm"/>
  <rect x="260" y="160" width="114" height="68" class="card-sm"/>

  <text x="73" y="184" text-anchor="middle" class="text-secondary" font-size="11">Bateria</text>
  <text x="73" y="212" text-anchor="middle" class="text-green" font-size="18" font-weight="600">78%</text>

  <text x="195" y="184" text-anchor="middle" class="text-secondary" font-size="11">Dispositivos</text>
  <text x="195" y="212" text-anchor="middle" class="text-primary" font-size="18" font-weight="600">3</text>

  <text x="317" y="184" text-anchor="middle" class="text-secondary" font-size="11">VPN</text>
  <text x="317" y="212" text-anchor="middle" class="text-green" font-size="18" font-weight="600">On</text>

  <!-- WiFi card -->
  <rect x="16" y="252" width="358" height="72" class="card"/>
  <rect x="32" y="266" width="44" height="44" class="icon-blue"/>
  <path d="M46 284 a11 11 0 0 1 14.08 0 M42.42 281 a16 16 0 0 1 21.16 0 M49.53 288 a6 6 0 0 1 6.95 0 M54 292 h.01" stroke="#60a5fa" fill="none" stroke-width="2"/>
  <text x="90" y="286" class="text-primary" font-size="15" font-weight="500">Conectar WiFi</text>
  <text x="90" y="304" class="text-secondary" font-size="13">Hotel Margarita</text>
  <path d="M352 288 l6-6 -6-6" class="chevron"/>

  <!-- Media card -->
  <rect x="16" y="334" width="358" height="72" class="card"/>
  <rect x="32" y="348" width="44" height="44" class="icon-purple"/>
  <polygon points="47,358 63,370 47,382" stroke="#a78bfa" fill="none" stroke-width="2"/>
  <text x="90" y="368" class="text-primary" font-size="15" font-weight="500">Media center</text>
  <text x="90" y="386" class="text-secondary" font-size="13">12 peliculas, 3 series</text>
  <path d="M352 370 l6-6 -6-6" class="chevron"/>

  <!-- Sync card -->
  <rect x="16" y="416" width="358" height="72" class="card"/>
  <rect x="32" y="430" width="44" height="44" class="icon-teal"/>
  <path d="M63 452 a9 9 0 0 1-9 9 m0 0 a9 9 0 0 1-9-9 m9 9 V443 m0 0 l-4 5 m4-5 l4 5" stroke="#5eead4" fill="none" stroke-width="2"/>
  <text x="90" y="450" class="text-primary" font-size="15" font-weight="500">Sincronizar</text>
  <text x="90" y="468" class="text-secondary" font-size="13">Con Jellyfin de casa</text>
  <path d="M352 452 l6-6 -6-6" class="chevron"/>

  <!-- Storage -->
  <rect x="16" y="508" width="358" height="64" class="card-sm"/>
  <text x="32" y="532" class="text-secondary" font-size="12">Almacenamiento</text>
  <text x="358" y="532" text-anchor="end" class="text-secondary" font-size="12">12.4 / 64 GB</text>
  <rect x="32" y="544" width="326" height="6" class="bar-bg"/>
  <rect x="32" y="544" width="63" height="6" class="bar-fill"/>
</svg>
