<svg xmlns="http://www.w3.org/2000/svg" viewBox="0 0 390 760" width="390" height="760">
  <defs>
    <style>
      .bg { fill: #0a0a0a; }
      .card { fill: #161616; rx: 14; ry: 14; }
      .card-sm { fill: #161616; rx: 12; ry: 12; }
      .card-connected { fill: #1e3a5f; rx: 12; ry: 12; stroke: #3b82f6; stroke-width: 2; }
      .text-primary { fill: #ffffff; font-family: -apple-system, 'Segoe UI', sans-serif; }
      .text-secondary { fill: #888888; font-family: -apple-system, 'Segoe UI', sans-serif; }
      .text-green { fill: #22c55e; font-family: -apple-system, 'Segoe UI', sans-serif; }
      .text-blue { fill: #3b82f6; font-family: -apple-system, 'Segoe UI', sans-serif; }
      .text-dark { fill: #000000; font-family: -apple-system, 'Segoe UI', sans-serif; }
      .alert-warning { fill: #78350f; rx: 12; ry: 12; stroke: #92400e; stroke-width: 1; }
      .btn-amber { fill: #f59e0b; rx: 10; ry: 10; }
      .btn-outline { fill: none; stroke: #333333; stroke-width: 1; rx: 10; ry: 10; }
      .back-btn { fill: #161616; rx: 10; ry: 10; }
      .wifi-icon { stroke: #888888; fill: none; stroke-width: 2; }
      .wifi-icon-blue { stroke: #3b82f6; fill: none; stroke-width: 2; }
      .modal-overlay { fill: rgba(0,0,0,0.7); }
      .modal-box { fill: #161616; rx: 16; ry: 16; }
      .input-field { fill: #0a0a0a; stroke: #333333; stroke-width: 1; rx: 10; ry: 10; }
      .btn-blue { fill: #3b82f6; rx: 10; ry: 10; }
    </style>
  </defs>

  <!-- Background -->
  <rect width="390" height="760" class="bg"/>

  <!-- Header -->
  <rect x="16" y="20" width="36" height="36" class="back-btn"/>
  <path d="M39 30 l-6 6 6 6" stroke="#888888" fill="none" stroke-width="2"/>
  <text x="64" y="45" class="text-primary" font-size="20" font-weight="600">Connect WiFi</text>

  <!-- Portal alert -->
  <rect x="16" y="72" width="358" height="110" class="alert-warning"/>
  <text x="32" y="96" class="text-primary" font-size="14" font-weight="600">Captive portal detected</text>
  <text x="32" y="116" class="text-primary" font-size="13" opacity="0.85">This network requires web authentication</text>
  <rect x="32" y="130" width="326" height="36" class="btn-amber"/>
  <text x="195" y="153" text-anchor="middle" class="text-dark" font-size="14" font-weight="600">Clone my MAC</text>

  <!-- Section header -->
  <text x="16" y="214" class="text-primary" font-size="14" font-weight="500">Available networks</text>
  <rect x="290" y="197" width="84" height="28" class="btn-outline"/>
  <text x="332" y="215" text-anchor="middle" class="text-secondary" font-size="12">Scan</text>

  <!-- Network: connected -->
  <rect x="16" y="234" width="358" height="64" class="card-connected"/>
  <path d="M41 254 a11 11 0 0 1 14.08 0 M37.42 251 a16 16 0 0 1 21.16 0 M44.53 258 a6 6 0 0 1 6.95 0 M48 262 h.01" class="wifi-icon-blue"/>
  <text x="72" y="258" class="text-primary" font-size="14" font-weight="500">Hotel Margarita</text>
  <text x="72" y="276" class="text-secondary" font-size="12">Connected</text>
  <text x="350" y="262" text-anchor="end" class="text-secondary" font-size="12">-45 dBm</text>

  <!-- Network 2 -->
  <rect x="16" y="308" width="358" height="64" class="card-sm"/>
  <path d="M41 328 a11 11 0 0 1 14.08 0 M44.53 332 a6 6 0 0 1 6.95 0 M48 336 h.01" class="wifi-icon"/>
  <text x="72" y="332" class="text-primary" font-size="14" font-weight="500">Cafe_Guest</text>
  <text x="72" y="350" class="text-secondary" font-size="12">WPA2</text>
  <text x="350" y="336" text-anchor="end" class="text-secondary" font-size="12">-62 dBm</text>

  <!-- Network 3 -->
  <rect x="16" y="382" width="358" height="64" class="card-sm"/>
  <path d="M44.53 406 a6 6 0 0 1 6.95 0 M48 410 h.01" class="wifi-icon"/>
  <text x="72" y="406" class="text-primary" font-size="14" font-weight="500">Airport_Free</text>
  <text x="72" y="424" class="text-secondary" font-size="12">Open</text>
  <text x="350" y="410" text-anchor="end" class="text-secondary" font-size="12">-78 dBm</text>

  <!-- Network 4 -->
  <rect x="16" y="456" width="358" height="64" class="card-sm"/>
  <path d="M44.53 480 a6 6 0 0 1 6.95 0 M48 484 h.01" class="wifi-icon"/>
  <text x="72" y="480" class="text-primary" font-size="14" font-weight="500">MOVISTAR_A3F2</text>
  <text x="72" y="498" class="text-secondary" font-size="12">WPA2</text>
  <text x="350" y="484" text-anchor="end" class="text-secondary" font-size="12">-81 dBm</text>

  <!-- Modal (connect dialog) -->
  <rect x="0" y="540" width="390" height="220" fill="#0a0a0a" opacity="0.5"/>
  <rect x="45" y="570" width="300" height="180" class="modal-box"/>
  <text x="65" y="600" class="text-primary" font-size="18" font-weight="600">Connect to Cafe_Guest</text>
  <rect x="65" y="616" width="260" height="40" class="input-field"/>
  <text x="77" y="641" class="text-secondary" font-size="14">Password</text>
  <rect x="65" y="670" width="125" height="40" class="btn-outline"/>
  <text x="128" y="695" text-anchor="middle" class="text-secondary" font-size="14">Cancel</text>
  <rect x="200" y="670" width="125" height="40" class="btn-blue"/>
  <text x="262" y="695" text-anchor="middle" class="text-primary" font-size="14" font-weight="600">Connect</text>
</svg>
